<?xml version="1.0" encoding="utf-8"?>
<!-- Generator: Adobe Illustrator 17.0.0, SVG Export Plug-In . SVG Version: 6.00 Build 0)  -->
<!DOCTYPE svg PUBLIC "-//W3C//DTD SVG 1.1//EN" "http://www.w3.org/Graphics/SVG/1.1/DTD/svg11.dtd">
<svg version="1.1" id="Layer_1" xmlns="http://www.w3.org/2000/svg" xmlns:xlink="http://www.w3.org/1999/xlink" x="0px" y="0px"
	 width="384px" height="384px" viewBox="0 0 384 384" enable-background="new 0 0 384 384" xml:space="preserve">
<path fill="#FFFFFF" d="M374.954,147.814l-106.76,61.638l0.007,0.013l-73.222,42.275l30.807-146.467
	c0.7-2.824,0.505-5.647-0.588-8.468c-1.09-2.82-2.819-5.116-5.186-6.888c-2.434-1.731-5.162-2.688-8.181-2.874
	c-3.02-0.184-5.806,0.461-8.361,1.937l-102.792,59.347l-19.115-33.108L9.046,236.168l48.02-27.725l0.01,0.017l131.985-76.201
	l-31.008,146.582c-0.595,2.854-0.372,5.684,0.666,8.49c1.038,2.809,2.807,5.059,5.309,6.751c2.434,1.734,5.161,2.691,8.181,2.874
	c3.019,0.185,5.805-0.461,8.361-1.937l102.769-59.334l19.098,33.079L374.954,147.814z"/>
</svg>
