<?xml version="1.0" encoding="utf-8"?>
<!-- Generator: Adobe Illustrator 17.0.0, SVG Export Plug-In . SVG Version: 6.00 Build 0)  -->
<!DOCTYPE svg PUBLIC "-//W3C//DTD SVG 1.1//EN" "http://www.w3.org/Graphics/SVG/1.1/DTD/svg11.dtd">
<svg version="1.1" id="Layer_1" xmlns="http://www.w3.org/2000/svg" xmlns:xlink="http://www.w3.org/1999/xlink" x="0px" y="0px"
	 width="684.354px" height="220.64px" viewBox="169.823 273.68 684.354 220.64"
	 enable-background="new 169.823 273.68 684.354 220.64" xml:space="preserve">
<g>
	<g>
		<path fill="#777777" d="M220.792,432.408c2.996,0,5.89-0.22,8.683-0.665c2.791-0.441,5.005-0.901,6.639-1.379v12.974
			c-1.839,0.885-4.545,1.617-8.12,2.195c-3.576,0.578-6.793,0.869-9.653,0.869c-21.654,0-32.482-11.406-32.482-34.218v-66.599
			h-16.036v-8.17l16.036-7.049l7.151-23.901h9.805v25.944h32.482v13.176h-32.482v65.883c0,6.742,1.6,11.917,4.801,15.527
			C210.816,430.604,215.208,432.408,220.792,432.408z"/>
		<path fill="#777777" d="M309.555,330.366c4.97,0,9.431,0.409,13.381,1.227l-2.348,15.729c-4.632-1.021-8.718-1.532-12.258-1.532
			c-9.058,0-16.802,3.678-23.238,11.032c-6.435,7.354-9.653,16.514-9.653,27.475v60.061h-16.956v-111.95h13.993l1.94,20.735h0.817
			c4.153-7.285,9.158-12.903,15.015-16.852C296.106,332.343,302.541,330.366,309.555,330.366z"/>
		<path fill="#777777" d="M412.719,444.359l-3.37-15.934h-0.817c-5.584,7.014-11.151,11.764-16.7,14.248
			c-5.552,2.486-12.48,3.729-20.787,3.729c-11.1,0-19.8-2.86-26.098-8.582c-6.299-5.72-9.448-13.855-9.448-24.411
			c0-22.607,18.08-34.456,54.238-35.546l18.999-0.614v-6.945c0-8.784-1.89-15.271-5.67-19.458c-3.778-4.188-9.823-6.282-18.13-6.282
			c-9.33,0-19.884,2.86-31.665,8.58l-5.209-12.972c5.516-2.996,11.558-5.346,18.131-7.047c6.57-1.701,13.158-2.555,19.764-2.555
			c13.346,0,23.238,2.962,29.673,8.886c6.435,5.924,9.653,15.424,9.653,28.498v76.404h-12.564L412.719,444.359L412.719,444.359z
			 M374.416,432.408c10.554,0,18.846-2.893,24.872-8.682c6.026-5.787,9.039-13.892,9.039-24.311v-10.112l-16.956,0.714
			c-13.483,0.478-23.204,2.573-29.162,6.282c-5.959,3.714-8.938,9.484-8.938,17.315c0,6.129,1.855,10.792,5.567,13.992
			C362.549,430.809,367.741,432.408,374.416,432.408z"/>
		<path fill="#777777" d="M536.824,444.359V371.94c0-9.124-2.077-15.936-6.231-20.43c-4.154-4.494-10.657-6.741-19.508-6.741
			c-11.715,0-20.294,3.167-25.742,9.498c-5.448,6.333-8.171,16.787-8.171,31.358v58.733h-16.956v-111.95h13.789l2.759,15.322h0.817
			c3.473-5.515,8.341-9.789,14.606-12.82c6.265-3.029,13.243-4.546,20.94-4.546c13.483,0,23.628,3.253,30.44,9.756
			c6.807,6.505,10.214,16.905,10.214,31.205v73.033h-16.957V444.359L536.824,444.359z"/>
	</g>
	<g>
		<path fill="#777777" d="M705.235,310.026c0-3.725,0.954-6.455,2.86-8.188c1.906-1.731,4.29-2.598,7.15-2.598
			c2.724,0,5.073,0.883,7.049,2.647c1.973,1.766,2.962,4.479,2.962,8.139c0,3.662-0.989,6.39-2.962,8.188
			c-1.977,1.8-4.325,2.697-7.049,2.697c-2.86,0-5.244-0.897-7.15-2.697C706.189,316.417,705.235,313.689,705.235,310.026z
			 M723.622,446.625h-16.957V339.15h16.957V446.625z"/>
		<path fill="#777777" d="M795.734,435.152c2.996,0,5.891-0.212,8.684-0.637c2.791-0.425,5.004-0.865,6.638-1.324v12.452
			c-1.839,0.852-4.545,1.554-8.119,2.109c-3.576,0.555-6.794,0.834-9.653,0.834c-21.654,0-32.481-10.95-32.481-32.849v-63.936
			h-16.036v-7.846l16.036-6.766l7.15-22.946h9.805v24.907h32.483v12.651h-32.483v63.249c0,6.471,1.601,11.439,4.801,14.905
			C785.758,433.421,790.15,435.152,795.734,435.152z"/>
	</g>
	<g>
		<g>
			<path fill="#E2492F" d="M691.705,477.216H563.61v-16.951l98.907-149.89h-95.848v-19.501h122.232v16.951l-98.907,149.762h101.711
				V477.216L691.705,477.216z"/>
		</g>
		<rect x="310.578" y="290.874" fill="#E2492F" width="264.235" height="19.501"/>
		<rect x="690.236" y="457.625" fill="#E2492F" width="110.06" height="19.591"/>
		<polygon fill="#E2492F" points="346.969,310.375 249.116,310.375 346.969,273.68 		"/>
		<polygon fill="#E2492F" points="756.324,457.625 854.177,457.625 756.324,494.32 		"/>
	</g>
</g>
</svg>
