<?xml version="1.0" encoding="utf-8"?>
<!-- Generator: Adobe Illustrator 17.0.0, SVG Export Plug-In . SVG Version: 6.00 Build 0)  -->
<!DOCTYPE svg PUBLIC "-//W3C//DTD SVG 1.1//EN" "http://www.w3.org/Graphics/SVG/1.1/DTD/svg11.dtd">
<svg version="1.1" id="Layer_1" xmlns="http://www.w3.org/2000/svg" xmlns:xlink="http://www.w3.org/1999/xlink" x="0px" y="0px"
	 width="922px" height="244px" viewBox="0 0 922 244" enable-background="new 0 0 922 244" xml:space="preserve">
<g>
	<path fill="#C4C4C4" d="M244.642,109.61h-68.121c-4.116,0-7.22,1.03-9.316,3.086c-2.096,2.058-3.144,5.065-3.144,9.025v83.493
		h-30.276v-83.493c0-5.2,0.659-9.858,1.979-13.974c1.319-4.114,3.086-7.743,5.299-10.887c2.213-3.145,4.754-5.823,7.627-8.035
		c2.871-2.212,5.881-4.017,9.025-5.414c3.144-1.398,6.326-2.426,9.549-3.086c3.22-0.659,6.23-0.99,9.025-0.99h68.354L244.642,109.61
		L244.642,109.61z"/>
	<path fill="#C4C4C4" d="M384.729,163.526c0,4.192-0.739,8.716-2.213,13.566c-1.475,4.852-3.863,9.356-7.161,13.507
		c-3.3,4.154-7.609,7.627-12.926,10.422c-5.318,2.795-11.781,4.192-19.388,4.192h-54.614c-4.192,0-8.716-0.737-13.566-2.212
		c-4.853-1.474-9.356-3.861-13.508-7.162c-4.153-3.298-7.627-7.607-10.422-12.925c-2.795-5.317-4.192-11.78-4.192-19.389
		c0-4.192,0.737-8.734,2.212-13.625c1.474-4.891,3.861-9.412,7.161-13.566c3.299-4.152,7.608-7.627,12.926-10.422
		c5.316-2.795,11.78-4.192,19.389-4.192h54.614v28.879h-54.614c-4.116,0-7.298,1.263-9.549,3.785
		c-2.252,2.523-3.377,5.648-3.377,9.374c0,3.959,1.3,7.045,3.901,9.257c2.6,2.213,5.685,3.319,9.258,3.319h54.381
		c4.114,0,7.296-1.241,9.548-3.727c2.251-2.483,3.377-5.589,3.377-9.316l-0.086-40.758c0-3.96-1.222-7.104-3.668-9.432
		c-2.445-2.329-5.531-3.494-9.257-3.494h-66.492l0.086-30.275h66.492c4.192,0,8.714,0.739,13.566,2.213
		c4.851,1.476,9.355,3.863,13.508,7.161c4.152,3.3,7.627,7.609,10.422,12.926c2.794,5.318,4.192,11.781,4.192,19.389V163.526z"/>
	<path fill="#C4C4C4" d="M550.084,205.214h-30.276v-69.868c0-3.96-0.68-7.512-2.038-10.655c-1.359-3.144-3.202-5.841-5.53-8.093
		c-2.329-2.251-5.065-3.977-8.21-5.182c-3.144-1.203-6.541-1.805-10.189-1.805h-52.984v95.604H410.58V94.355
		c0-2.096,0.388-4.055,1.165-5.88c0.775-1.823,1.863-3.416,3.26-4.775c1.397-1.357,3.027-2.425,4.891-3.202
		c1.863-0.775,3.842-1.165,5.939-1.165h68.238c3.803,0,7.82,0.428,12.053,1.281c4.23,0.855,8.423,2.233,12.576,4.134
		c4.152,1.903,8.11,4.309,11.878,7.219c3.765,2.912,7.104,6.445,10.014,10.597c2.911,4.153,5.22,8.948,6.929,14.381
		c1.706,5.435,2.561,11.569,2.561,18.399V205.214z"/>
	<path fill="#C4C4C4" d="M777.505,65.593h-30.276V38.228h30.276V65.593z M777.505,170.76h-30.276V79.3h30.276V170.76z"/>
	<path fill="#C4C4C4" d="M920.968,109.61h-52.867l-0.022,61.15h-30.626l0.022-61.15h-39.359V79.334h39.359V38.228h30.626v41.105
		h52.867V109.61z"/>
	<path fill="#C4C4C4" d="M123.063,109.61H70.196l-0.178,95.604H39.392l0.178-95.604H0.211V79.334H39.57l-0.004-6.686h30.626
		l0.004,6.686h52.867V109.61z"/>
	<path fill="#FFFFFF" d="M921.18,174.923H797.904v0.015H620.301l99.913-111.44c2.018-2.096,3.26-4.638,3.725-7.627
		c0.466-2.987,0.117-5.84-1.048-8.558c-1.243-2.716-3.126-4.909-5.648-6.579c-2.523-1.669-5.259-2.504-8.209-2.504H123.276V0
		L0,68.485h55.449v0.019h619.467l-100.145,111.44c-1.942,2.174-3.164,4.736-3.668,7.686c-0.505,2.951-0.099,5.784,1.222,8.501
		c1.241,2.718,3.124,4.911,5.648,6.579c2.522,1.67,5.258,2.504,8.209,2.504h211.721v38.196L921.18,174.923z"/>
</g>
</svg>
